<svg xmlns="http://www.w3.org/2000/svg" width="159" height="17" fill="none" role="img"><title>SmartRecruiters logo</title><g fill="#37b971"><path d="M61.39 15.865V.56h5.863c2.867 0 4.699 1.983 4.699 4.527 0 2.048-1.121 3.341-3.147 3.988l5.497 6.79H70.53L65.292 9.42h-.776v6.445H61.39zm3.126-9.118h2.371c1.164 0 1.962-.625 1.962-1.66 0-1.056-.798-1.66-1.962-1.66h-2.371v3.32zm9.053 3.729c0-3.19 2.393-5.626 5.669-5.626 2.824 0 5.303 1.811 5.303 5.303l-.043 1.013h-8.062c.172 1.444 1.444 2.242 2.867 2.242 1.336 0 2.306-.625 2.781-1.358l2.199 1.638c-.992 1.444-2.737 2.414-5.001 2.414-3.212 0-5.712-2.22-5.712-5.626zm5.583-3.19c-1.099 0-2.328.56-2.608 1.875h5.044c-.259-1.272-1.337-1.875-2.436-1.875zm17.094 5.712c-.927 1.854-2.867 3.104-5.109 3.104-3.19 0-5.712-2.371-5.712-5.626s2.522-5.626 5.712-5.626c2.242 0 4.182 1.25 5.109 3.104l-2.565 1.38c-.431-.992-1.358-1.724-2.544-1.724-1.552 0-2.737 1.207-2.737 2.867s1.185 2.867 2.737 2.867c1.186 0 2.112-.733 2.544-1.724L96.246 13z"/><use href="#B"/><path d="M115.344 5.087v10.778h-2.953v-.862c-.69.711-1.746 1.099-2.651 1.099-2.759 0-4.355-1.897-4.355-4.764V5.087h2.954v5.755c0 1.53.625 2.565 2.026 2.565.754 0 1.552-.474 2.026-1.229V5.087h2.953zm5.389-3.212c0 1.035-.841 1.875-1.897 1.875-1.013 0-1.875-.841-1.875-1.875S117.823 0 118.836 0c1.056 0 1.897.841 1.897 1.875zm-3.363 13.99V5.087h2.954v10.778h-2.954zm13.3-.496c-.517.28-1.681.625-2.78.625-2.415 0-4.182-1.272-4.182-3.902v-4.31h-2.177V5.087h2.177V1.854h2.953v3.233h3.255v2.694h-3.255v3.729c0 1.315.56 1.811 1.638 1.811a3.41 3.41 0 0 0 1.487-.367l.884 2.414zm-.409-4.893c0-3.19 2.392-5.626 5.669-5.626 2.824 0 5.302 1.811 5.302 5.303l-.043 1.013h-8.061c.172 1.444 1.444 2.242 2.866 2.242 1.337 0 2.307-.625 2.781-1.358l2.199 1.638c-.992 1.444-2.738 2.414-5.001 2.414-3.212 0-5.712-2.22-5.712-5.626zm5.583-3.19c-1.1 0-2.328.56-2.609 1.875h5.044c-.258-1.272-1.336-1.875-2.435-1.875z"/><use href="#B" x="45.159"/><path d="M158.283 12.589c0 2.091-1.789 3.514-4.096 3.514-1.897 0-3.513-.668-4.44-2.069l2.026-1.724c.474.798 1.38 1.25 2.414 1.25.604 0 1.186-.237 1.186-.776 0-.453-.259-.711-1.444-1.035l-.798-.194c-1.983-.517-3.018-1.789-2.975-3.449.043-1.983 1.768-3.255 4.053-3.255 1.638 0 2.91.625 3.729 1.811l-1.94 1.574c-.496-.625-1.121-.948-1.832-.948-.518 0-1.078.237-1.078.733 0 .323.151.69 1.056.927l1.013.302c1.94.517 3.126 1.466 3.126 3.341z"/></g><path d="M0 13.386l2.414-2.005c.754 1.142 2.048 1.811 3.298 1.811 1.229 0 2.069-.604 2.069-1.487 0-.862-.647-1.466-2.156-1.983l-1.293-.453C1.875 8.407.56 6.984.56 4.893.56 2.005 2.759.302 5.734.302c1.875 0 3.514.647 4.85 2.112L8.493 4.548c-.711-.884-1.681-1.315-2.716-1.315-1.056 0-2.048.453-2.048 1.358 0 .927.733 1.336 2.35 1.918l1.229.453c2.242.819 3.664 2.242 3.643 4.548-.022 2.738-2.199 4.613-5.346 4.613-2.436 0-4.505-1.056-5.604-2.737zm25.867 2.479v-5.691c0-1.487-.496-2.608-1.854-2.608-.884 0-1.66.496-2.069 1.272a3.51 3.51 0 0 1 .086.819v6.208h-2.953v-5.691c0-1.487-.496-2.608-1.854-2.608-.841 0-1.617.474-1.983 1.142v7.156h-2.953V5.087h2.953v.841c.56-.647 1.638-1.078 2.63-1.078 1.272 0 2.307.539 3.039 1.423.668-.776 1.897-1.423 3.514-1.423 3.039 0 4.397 2.134 4.397 4.807v6.208h-2.953zm4.052-5.389c0-3.061 2.199-5.626 5.065-5.626 1.487 0 2.63.754 3.104 1.444V5.087h2.953v10.778h-2.953v-1.207c-.474.69-1.617 1.444-3.104 1.444-2.867 0-5.065-2.565-5.065-5.626zm8.407 0c0-1.681-1.099-2.932-2.716-2.932s-2.716 1.25-2.716 2.932 1.099 2.932 2.716 2.932 2.716-1.25 2.716-2.932zm4.57 5.389V5.087h2.953v1.724c.367-1.056 1.466-1.854 2.673-1.854a3.39 3.39 0 0 1 .992.129v2.996c-.453-.151-.862-.237-1.336-.237-1.401 0-2.328 1.099-2.328 2.867v5.152h-2.953zm16.749-.496c-.517.28-1.681.625-2.781.625-2.414 0-4.182-1.272-4.182-3.902V7.889h-2.177V5.087h2.177V1.854h2.953v3.233h3.255v2.802h-3.255v3.621c0 1.315.56 1.811 1.638 1.811a3.42 3.42 0 0 0 1.487-.367l.884 2.414z" fill="#11314a"/><defs ><path id="B" d="M97.539 15.865V5.087h2.953v1.724c.367-1.056 1.466-1.854 2.673-1.854.302 0 .625.022.992.129v2.996a4.06 4.06 0 0 0-1.337-.237c-1.401 0-2.328 1.099-2.328 2.867v5.152h-2.953z"/></defs></svg>